<svg xmlns="http://www.w3.org/2000/svg" viewBox="0 0 72 82.32896"><title>logo</title><path d="M610.8329,791.28332a6.1827,6.1827,0,0,1-4.60706-5.36674c-.23374-3.23144,1.56591-5.26545,4.84837-5.47979a4.39256,4.39256,0,0,1,3.96085,1.32974c.77691.88486.99059,1.39561,1.35251,3.23291.31737,1.61116.7551,2.25289,1.40259,2.05623,2.00118-.6078,3.26011-5.04961,4.13216-14.57934.28847-3.1524.55659-9.64.92635-22.41523.29288-10.11888.77016-15.62812,1.86444-21.52078,2.29305-12.34814,6.58767-18.26526,13.84778-19.07944,3.7281-.4181,6.43685.557,8.243,2.96731,1.44908,1.93383,1.22315,5.45829-.44923,7.00821a4.74178,4.74178,0,0,1-3.56675,1.19621,4.40542,4.40542,0,0,1-2.57055-.5028,5.34271,5.34271,0,0,1-2.55908-4.0613,6.85,6.85,0,0,0-.53166-1.83089c-.2593-.3996-.36831-.42664-.93026-.23074-1.90107.66271-3.18608,4.8974-3.98271,13.12487-.3777,3.90083-.6626,10.14152-.93877,20.56444-.27845,10.50788-.58464,15.22019-1.35626,20.8729-1.00032,7.32808-2.62981,12.95114-4.84394,16.7155a19.21437,19.21437,0,0,1-5.04468,5.03775,14.29238,14.29238,0,0,1-2.57056.96532A13.56221,13.56221,0,0,1,610.8329,791.28332Z" transform="translate(-576 -709.36691)"/><path d="M580.73166,791.28332a6.1827,6.1827,0,0,1-4.60706-5.36674c-.23374-3.23144,1.56591-5.26545,4.84837-5.47979a4.39256,4.39256,0,0,1,3.96085,1.32974c.77691.88486.99059,1.39561,1.35251,3.23291.31737,1.61116.7551,2.25289,1.40259,2.05623,2.00118-.6078,3.26011-5.04961,4.13216-14.57934.28847-3.1524.55659-9.64.92635-22.41523.29288-10.11888.77016-15.62812,1.86444-21.52078,2.29305-12.34814,6.58767-18.26526,13.84778-19.07944,3.7281-.4181,6.43685.557,8.243,2.96731,1.44908,1.93383,1.22315,5.45829-.44923,7.00821a4.74178,4.74178,0,0,1-3.56675,1.19621,4.40542,4.40542,0,0,1-2.57055-.5028,5.34271,5.34271,0,0,1-2.55908-4.0613,6.85,6.85,0,0,0-.53166-1.83089c-.2593-.3996-.36831-.42664-.93026-.23074-1.90107.66271-3.18608,4.8974-3.98271,13.12487-.3777,3.90083-.6626,10.14152-.93877,20.56444-.27845,10.50788-.58464,15.22019-1.35626,20.8729-1.00032,7.32808-2.62981,12.95114-4.84394,16.7155a19.21437,19.21437,0,0,1-5.04468,5.03775,14.29238,14.29238,0,0,1-2.57056.96532A13.56221,13.56221,0,0,1,580.73166,791.28332Z" transform="translate(-576 -709.36691)"/><path d="M648,753.85706c-.24445.38544-.47388.78882-.74475,1.15509-.265.37067-.53821.73883-.78748,1.11877-.51044.74695-1.0448,1.50159-1.59448,2.23315l-.03619.03644-1.28088,1.49261a19.71637,19.71637,0,0,1-1.41638,1.47095l-.09814.0708-1.39374,1.08453-.08173.04871-.6723.44476L639.8,763.059l-.75995.4-.12244.04675-.68958.27942-.13367.03619-.69495.20276-.14819.02411-.70032.1261-.15887.00861-.78406.05493-.16479-.00891-.71106-.02722-.16431-.02667-.71643-.10388-.15863-.043-.7218-.18054-.15582-.05951-.80609-.29517-.12921-.06335-.72705-.34412-.12219-.07281-1.52576-.8642-.17871-.12891a17.913,17.913,0,0,1-1.65314-1.31537c-.49066-.44629-.98022-.86475-1.46814-1.27216l-.114-.11444c-.65875-.63513-1.32031-1.35156-1.91278-1.97961-.60315-.63495-1.29712-1.29816-1.91614-2.02649-.55072-.65784-1.16486-1.24933-1.80371-1.937-.64349-.70294-1.21021-1.31042-1.83252-1.95563l.13239.13293c-.50623-.45154-1.00085-.90247-1.46448-1.35034l-.6543-.58807-.70392-.55786.23438.16907c-.51306-.31012-1.01892-.63269-1.52258-.96039l.1701.10144-.70764-.3797.18494.0907-.78589-.34094.23065.08807-.70691-.22638.24268.06573-.70642-.14972.25989.04224-.70605-.07306.26947.01465-.78406.00146.26965-.01459-.70612.073.26013-.04224-.70648.14966.2428-.06573-.70685.22632.23077-.08813-.78589.34094.185-.09076-.7077.3797.17029-.1015c-.50482.326-1.00818.65247-1.52124.96259l.23474-.16937-.70392.55768-.65424.588c-.46362.44781-.95831.89874-1.4646,1.35022l.13257-.13312c-.62036.64691-1.18726,1.254-1.831,1.95685-.63879.68781-1.25385,1.27832-1.80334,1.93707-.61755.7298-1.313,1.39191-1.91589,2.027-.59363.62683-1.25281,1.34564-1.912,1.98035l-.11438.11487c-.488.40723-.97766.8255-1.46844,1.27167a18.09971,18.09971,0,0,1-1.65308,1.31635l-.17944.12939-1.526.86365-.12268.07312-.72717.34381-.12976.06366-.80554.29639-.15656.05981-.72192.18024-.15936.04315-.71649.10358-.1651.02679-.71112.02692-.16553.00891-.78406-.05524-.15961-.00867-.70026-.1264-.14886-.02423-.69489-.20306-.13428-.03638-.68951-.27979-.12292-.04694-.75983-.40027-.0943-.04626-.67279-.44391-.08215-.049-1.39313-1.08533-.09863-.07117a19.7252,19.7252,0,0,1-1.416-1.472l-1.28052-1.493-.03644-.03662c-.54932-.73187-1.08289-1.48737-1.59332-2.23425-.249-.38019-.52191-.7486-.78668-1.11951-.27057-.36652-.49982-.77-.7439-1.15582.34631.301.66913.618,1.02051.91052.3504.29407.7041.58026,1.0437.8891.68323.61621,1.33624,1.23016,2.0274,1.81921l-.03613-.03632c.5354.3952,1.06805.793,1.56653,1.21393a17.97559,17.97559,0,0,0,1.54065,1.112l-.09833-.07092,1.58691.8316-.08179-.04883.73859.32275-.09393-.04608.80847.28973-.12262-.04681.72192.18024-.13385-.03632.71649.10358-.1485-.02411.71106.02692-.15912-.00867.78406-.0553-.1651.009.70026-.1264-.16467.02673.69482-.20306-.15894.043.68945-.27972-.15619.05957.76276-.39355-.12939.06348.6842-.42285-.12231.07294,1.454-1.05328-.17908.12921c.46613-.414.88831-.82361,1.30353-1.2677.43713-.47827.902-.95648,1.37854-1.4353l-.11407.11456,1.70868-2.07306c.59613-.72333,1.1709-1.35522,1.67889-2.048.576-.76379,1.23126-1.46729,1.7915-2.13788.54987-.66022,1.16956-1.42255,1.78973-2.09662l.10712-.10913.0257-.02429c.45825-.43451.91809-.88007,1.38239-1.35663l.78528-.74866.81323-.68982a1.73246,1.73246,0,0,1,.16229-.12213l.0728-.04742,1.45882-.95435q.074-.04843.15021-.09064l.02032-.011.70374-.387q.078-.04294.15784-.0788l.02759-.01215.78235-.34906q.10089-.045.20374-.07935l.0274-.00891.70453-.23364q.10712-.03552.21509-.05981l.02814-.0061.70489-.15692a2.274,2.274,0,0,1,.23218-.03931l.02826-.00305.70532-.08032a2.30579,2.30579,0,0,1,.2605-.01483l.00958.00024.78406.00146.01715.00006a2.33724,2.33724,0,0,1,.25281.01459l.70526.08026.02545.00293a2.33836,2.33836,0,0,1,.23486.03937l.7049.157.025.00555c.07343.01636.14813.03723.21814.06024l.70453.23364.02417.008c.06995.02319.14081.051.20685.0802l.78235.34906.02325.01038c.0542.02417.11084.05255.162.08051l.70374.387.01843.01013c.05072.02789.10431.06036.152.09149l1.45746.95654.06787.04456a1.88552,1.88552,0,0,1,.16681.12476l.81317.68964.78522.74841c.46436.47656.92426.92206,1.38257,1.35657l.02539.02411c.03595.03406.07416.07324.10724.10913.61823.67578,1.2381,1.43768,1.78827,2.09784.56012.67078,1.21631,1.37329,1.79108,2.138.50647.69421,1.08282,1.325,1.67865,2.04846l1.708,2.07385-.11365-.11414c.4765.47858.94153.9566,1.37885,1.43475.41626.44312.83685.855,1.30341,1.26862l-.17834-.12866,1.45435,1.05273-.12189-.07263.68439.42255-.12891-.06317.76221.39478-.15546-.05933.68958.27942-.1582-.04285.69495.20276-.16394-.02661.70026.1261-.16431-.00885.78406.05493-.15839.00855.71106-.02722-.14783.024.71643-.10388-.1333.03613.7218-.1806-.12207.04663.80829-.29-.09351.0459.73907-.3219-.08136.04852,1.5863-.8324-.09778.07056a17.97962,17.97962,0,0,0,1.54016-1.1131c.49811-.42133,1.03156-.81818,1.56616-1.21423l-.03595.03613c.69086-.58942,1.34308-1.20416,2.02631-1.82031.33929-.30908.69275-.59552,1.04285-.88983C647.33142,754.47559,647.65405,754.15839,648,753.85706Z" transform="translate(-576 -709.36691)"/></svg>